<?xml version="1.0" encoding="utf-8"?>
<!-- Generator: Adobe Illustrator 22.1.0, SVG Export Plug-In . SVG Version: 6.00 Build 0)  -->
<svg version="1.1" id="Ebene_1" xmlns="http://www.w3.org/2000/svg" xmlns:xlink="http://www.w3.org/1999/xlink" x="0px" y="0px"
	 viewBox="0 0 1008 1008" style="enable-background:new 0 0 1008 1008;" xml:space="preserve">
<path d="M504,74c142,0,250,108,252,250c-10,100-53,202-126,303c-73,100-116,153-126,159c-10-6-53-59-126-159
	c-73-101-116-203-126-303C254,182,362,74,504,74z M504,241c-47,0-83,37-83,85c0,47,36,82,83,82s83-35,83-82C587,278,551,241,504,241
	z M841,786c-6,97-146,168-337,168s-331-71-337-168c2-53,52-100,132-132l26,38c-47,20-71,45-73,75c2,57,110,102,252,102
	s250-45,252-102c-2-30-26-55-73-75l26-38C789,686,839,733,841,786z"/>
</svg>
